<svg xmlns="http://www.w3.org/2000/svg" xmlns:xlink="http://www.w3.org/1999/xlink" xml:space="preserve" version="1.1" style="shape-rendering:geometricPrecision;text-rendering:geometricPrecision;image-rendering:optimizeQuality;" viewBox="0 0 846.66 1058.325" x="0px" y="0px" fill-rule="evenodd" clip-rule="evenodd"><defs><style type="text/css">
   
    .fil0 {fill:black}
   
  </style></defs><g><path class="fil0" d="M234.27 203.33l93.31 0c25.74,0 46.81,21.06 46.81,46.81 0,12.34 0.08,24.67 0.24,36.99l61.31 7.18 78.93 -141.99c27.04,-48.46 100.72,-7.35 73.68,41.11l-92.09 165.37c-7.73,13.83 -22.98,22.7 -39.83,21.46l-79.93 -8.84c4.71,135.11 14.96,268.37 14.96,398.77 0,47.32 -60.77,49.75 -66.93,0.62l-37.01 -174.48 -13.5 0 -37.01 174.48c-6.16,49.13 -66.93,46.7 -66.93,-0.62 0,-169.36 17.18,-343.34 17.18,-520.05 0,-25.75 21.07,-46.81 46.81,-46.81zm213.28 222.21c-15.39,-1.21 -17.22,22.19 -1.83,23.39 7.21,0.58 14.35,1.6 21.42,3.14 15.09,3.26 20.04,-19.68 4.96,-22.94 -8.08,-1.75 -16.31,-2.94 -24.55,-3.59zm119.6 58.04c-11.22,-10.56 -27.28,6.51 -16.05,17.07 10.17,9.62 15.25,20.55 22.94,28.15 8.94,8.8 27.09,-0.77 16.29,-17.25 -3.26,-4.96 -10.47,-15.95 -23.18,-27.97zm-59.48 -38.51c-14.49,-5.25 -22.47,16.78 -7.99,22.02 9.17,3.34 17.65,7.51 25.85,12.79 12.96,8.31 25.62,-11.41 12.66,-19.73 -9.48,-6.1 -19.93,-11.22 -30.52,-15.08zm121.06 -312.26l47.65 0 0 701.21c-30.25,0 -60.51,0 -90.77,0l0 -21.16c0,-6.99 6.47,-9.55 12.71,-12.71l30.41 -15.41 0 -57.94c0,-90.48 -75.03,-41.43 -101.55,-162.26 64.68,-8.35 73.25,-19.1 101.55,-97.06l0 -334.67zm-301.02 -120.15c44.51,0 80.6,36.09 80.6,80.6 0,44.51 -36.09,80.6 -80.6,80.6 -44.51,0 -80.6,-36.09 -80.6,-80.6 0,-44.51 36.09,-80.6 80.6,-80.6z"/></g><text x="0" y="861.66" fill="#000000" font-size="5px" font-weight="bold" font-family="'Helvetica Neue', Helvetica, Arial-Unicode, Arial, Sans-serif">Created by Sumyati</text><text x="0" y="866.66" fill="#000000" font-size="5px" font-weight="bold" font-family="'Helvetica Neue', Helvetica, Arial-Unicode, Arial, Sans-serif">from the Noun Project</text></svg>