<svg xmlns="http://www.w3.org/2000/svg" xmlns:xlink="http://www.w3.org/1999/xlink" version="1.1" x="0px" y="0px" viewBox="0 0 100.018 296.47875" style="enable-background:new 0 0 100.018 237.183;" xml:space="preserve"><g><path d="M8.574,146.427c0.158,0,0.316-0.005,0.476-0.014c4.411-0.26,7.776-4.045,7.519-8.455C16.178,131.308,16,125.249,16,119.736   c-0.033-24.216,3.496-37.82,6.965-44.92v150.003c0,6.83,5.537,12.363,12.363,12.363c6.828,0,12.365-5.533,12.365-12.363v-90.271   h4.635v90.271c0,6.83,5.537,12.363,12.363,12.363c6.828,0,12.365-5.533,12.365-12.363V74.861c0.592,1.215,1.19,2.61,1.779,4.237   c2.82,7.813,5.19,20.631,5.181,40.639c0.002,5.514-0.177,11.572-0.564,18.222c-0.257,4.411,3.11,8.196,7.521,8.453   c0.159,0.009,0.318,0.014,0.475,0.014c4.205,0,7.73-3.283,7.979-7.535c0.402-6.931,0.592-13.299,0.592-19.154   c-0.04-30.182-4.862-46.886-11.436-56.932c-3.283-4.985-7.127-8.182-10.678-9.955c-3.392-1.709-6.371-2.105-8.18-2.132   c-0.132-0.007-0.262-0.02-0.396-0.02H30.693c-0.118,0-0.232,0.012-0.35,0.018c-1.803,0.022-4.809,0.409-8.231,2.133   c-5.379,2.669-11.177,8.502-15.234,18.842C2.772,82.069,0.014,97.077,0,119.736c0.002,5.855,0.188,12.224,0.596,19.158   C0.844,143.145,4.371,146.426,8.574,146.427z"/><circle cx="50.011" cy="22.5" r="22.5"/></g><text x="0" y="252.183" fill="#000000" font-size="5px" font-weight="bold" font-family="'Helvetica Neue', Helvetica, Arial-Unicode, Arial, Sans-serif">Created by Gan Khoon Lay</text><text x="0" y="257.183" fill="#000000" font-size="5px" font-weight="bold" font-family="'Helvetica Neue', Helvetica, Arial-Unicode, Arial, Sans-serif">from the Noun Project</text></svg>