<svg xmlns="http://www.w3.org/2000/svg" viewBox="0 0 100 125" x="0px" y="0px"><path d="M43.52322,47.87272a13.27393,13.27393,0,0,1-.34591-1.51288,87.993,87.993,0,0,1-.2763-10.28427,16.66,16.66,0,0,1,.66744-4.72656A6.05413,6.05413,0,0,1,45.439,28.23735a.64373.64373,0,0,0,.18529-.32c.15517-.55893.29548-1.122.451-1.7218a1.23173,1.23173,0,0,1-.86487-1.35644c.01384-.11815-.10615-.27625-.20338-.3789a1.83318,1.83318,0,0,1-.56495-1.58455,1.25289,1.25289,0,0,0-.06319-.506,1.99467,1.99467,0,0,1,.794-2.33734,1.82052,1.82052,0,0,0,.62353-.79164,2.97109,2.97109,0,0,1,1.55-1.39937,6.894,6.894,0,0,0,.93281-.55464,2.38243,2.38243,0,0,1,2.67181-.13034,12.90774,12.90774,0,0,0,1.325.66286c1.00671.44086,1.347,1.25573.38026,2.28036a13.70383,13.70383,0,0,0,.9418,2.36711,4.26939,4.26939,0,0,1,.42785,1.20668,1.2733,1.2733,0,0,1-.418,1.28722,1.72849,1.72849,0,0,0-.34543.59691,5.64989,5.64989,0,0,0-.1737.62224A1.69508,1.69508,0,0,1,51.76294,27.533a1.88435,1.88435,0,0,0-1.52961,1.61746,1.3169,1.3169,0,0,0,.30985,1.38574,8.81122,8.81122,0,0,1,1.92605,3.26707q.9544,3.15579,1.79267,6.34624c.37656,1.43663.72009,2.88867.95326,4.35372a15.14738,15.14738,0,0,1,.08446,2.90437,3.66224,3.66224,0,0,1-.37678,1.29044,1.73278,1.73278,0,0,1-1.20155,1.002c-.14379.03695-.28373.0888-.44385.13964a9.35715,9.35715,0,0,0,.0096,1.29259,7.90468,7.90468,0,0,1-.27612,3.26609,56.78613,56.78613,0,0,0-1.32241,7.05215c-.15314,1.04493-.33407,2.08579-.49835,3.12913a4.4481,4.4481,0,0,1-.61534,1.551,4.47269,4.47269,0,0,0-.50825,1.24086,17.637,17.637,0,0,0-.46737,4.17067c.02079,1.336.03225,2.67263.018,4.00867-.00874.81722-.07371,1.63385-.11661,2.51613a4.95982,4.95982,0,0,0,2.02483,1.09343c.62934.14463,1.25841.291,1.8901.42484a1.35354,1.35354,0,0,1,.95414,1.83927.81972.81972,0,0,1-.42409.36609,3.99255,3.99255,0,0,1-1.05788.27831,58.83762,58.83762,0,0,1-7.50349.14158c-1.35256-.06458-1.76765-.464-1.70918-1.79065a9.117,9.117,0,0,0-.42231-2.40031,13.83756,13.83756,0,0,1-.19394-4.57155c.28978-2.54948.635-5.09319.99661-7.6337a24.15836,24.15836,0,0,1,.555-2.5245,8.044,8.044,0,0,0,.24275-3.19709,17.95464,17.95464,0,0,1-.12522-2.77461,5.20858,5.20858,0,0,0-.48257-2.18261,16.07124,16.07124,0,0,1-.94678-2.74288A7.18426,7.18426,0,0,1,43.52322,47.87272Z"/><text x="0" y="115" fill="#000000" font-size="5px" font-weight="bold" font-family="'Helvetica Neue', Helvetica, Arial-Unicode, Arial, Sans-serif">Created by Softscape</text><text x="0" y="120" fill="#000000" font-size="5px" font-weight="bold" font-family="'Helvetica Neue', Helvetica, Arial-Unicode, Arial, Sans-serif">from the Noun Project</text></svg>