<svg xmlns:dc="http://purl.org/dc/elements/1.1/" xmlns:cc="http://creativecommons.org/ns#" xmlns:rdf="http://www.w3.org/1999/02/22-rdf-syntax-ns#" xmlns:svg="http://www.w3.org/2000/svg" xmlns="http://www.w3.org/2000/svg" xmlns:sodipodi="http://sodipodi.sourceforge.net/DTD/sodipodi-0.dtd" xmlns:inkscape="http://www.inkscape.org/namespaces/inkscape" viewBox="0 0 100 125" version="1.1" x="0px" y="0px"><g transform="translate(0,-952.36216)"><path style="" d="m 44.830365,957.36216 c -5.104551,0 -9.25531,4.15077 -9.25531,9.25531 10e-4,5.13646 4.152142,9.2573 9.25531,9.2573 5.136376,0 9.30097,-4.12084 9.30097,-9.2573 0,-5.10454 -4.164594,-9.25531 -9.30097,-9.25531 z m -18.010331,20.39464 0,43.7275 0,6.9127 0,18.9652 6.910712,0 0,-18.9652 19.431784,0 0,18.9652 6.912694,0 0,-22.4216 0,-3.4563 -26.344478,0 0,-43.7275 -6.910712,0 z m 16.04294,0 c -3.552423,0 -6.410433,2.86524 -6.410423,6.41836 l 0,2.70394 0,3.79384 0,9.47366 0,8.2388 0,3.9607 c 0,3.5552 2.861182,6.4184 6.416379,6.4184 l 5.159704,0 14.768385,0 0,23.3209 c 0,6.9219 10.382947,6.9219 10.382947,0 l 0,-28.5084 c 2.34e-4,-2.8673 -2.324208,-5.1919 -5.191468,-5.1916 l -13.543485,0 0,-14.97676 c 0,-8.48344 -5.888889,-15.65184 -11.582039,-15.65184 z" fill="#000000"/></g><text x="0" y="115" fill="#000000" font-size="5px" font-weight="bold" font-family="'Helvetica Neue', Helvetica, Arial-Unicode, Arial, Sans-serif">Created by Andrew Doane</text><text x="0" y="120" fill="#000000" font-size="5px" font-weight="bold" font-family="'Helvetica Neue', Helvetica, Arial-Unicode, Arial, Sans-serif">from the Noun Project</text></svg>