<svg xmlns="http://www.w3.org/2000/svg" version="1.1" viewBox="-5.0 -10.0 110.0 135.0">
 <g>
  <path d="m73.285 19.496c4.1797 3.3281 10.207 2.9414 13.93-0.89453 1.3984-1.4805 2.2969-3.3633 2.582-5.3828 0.26953-2.0742-0.11719-4.1836-1.1016-6.0312-0.97266-1.9375-2.5547-3.5078-4.5-4.4727-1.8594-0.875-3.9414-1.1797-5.9766-0.87109-1.1836 0.19141-2.3242 0.57812-3.375 1.1445-4.0625 2.4141-5.9766 7.2695-4.6523 11.805 0.58984 1.8164 1.6562 3.4414 3.0938 4.7031z"/>
  <path d="m90.289 46.523c0-3.3008 0.003907-6.6016-0.019531-9.8984h0.003907c0.11328-1.9531-0.027344-3.9141-0.42578-5.8281-1.3555-4.3164-5.6328-7.0156-10.109-6.3789-2.3828 0.24609-4.5664 1.4492-6.0469 3.332-1.1562 1.418-1.8633 3.1484-2.0312 4.9688-0.089844 0.45703 0.11328 0.99219-0.19922 1.3867-1.4844 2.1641-2.9844 4.3203-4.4258 6.5117-0.96484 1.2656-1.7773 2.6406-2.7227 3.9219-0.80859 1.1055-1.543 2.2617-2.3555 3.3672v-0.003906c-0.54688 0.6875-1.0352 1.418-1.4648 2.1836-0.58984 1.1445-0.69141 2.4766-0.28125 3.6992 0.32812 0.96484 0.99219 1.7852 1.8711 2.3047 1.0391 0.59375 2.2695 0.75781 3.4258 0.45312 1.1406-0.26562 2.1211-0.98047 2.7227-1.9805 2.2695-3.3633 4.5742-6.7031 6.8203-10.082 1.6953-2.4766 3.4141-4.9375 5.0312-7.4648l0.003907-0.003906c0.19141-0.24609 0.47656-0.40625 0.78906-0.4375 0.30859-0.03125 0.62109 0.066406 0.85938 0.26953 0.48828 0.38672 0.625 1.0664 0.32812 1.6094-0.54688 0.83984-1.1562 1.6406-1.7188 2.4688-0.83594 1.207-1.5977 2.4609-2.4531 3.6523-0.87891 1.2148-1.7109 2.4648-2.543 3.7148-1.0469 1.6641-2.2148 3.2461-3.2656 4.9062-0.40625 0.67188-0.86719 1.3086-1.3789 1.9062-0.12891 0.16406-0.35156 0.30469-0.31641 0.54688 0.16016 3.0234 2.2109 5.6172 5.1172 6.4688-0.089844 0.92187-0.046875 1.8438-0.054687 2.7656 0.011719 9.0703-0.019531 18.137 0.007812 27.207-0.03125 0.56641 0 1.1328 0.089844 1.6953 0.33984 1.5469 1.3125 2.8828 2.6797 3.6797 1.3789 0.74219 2.9766 0.97266 4.5078 0.64453 2.7695-0.48438 4.7461-2.9609 4.6094-5.7695 0.035156-10.414-0.03125-20.828 0.019531-31.242v-0.003906c0.97656-0.78125 1.7617-1.7734 2.2969-2.9062 0.44922-1.0469 0.64844-2.1836 0.58594-3.3242 0.066406-2.7773 0.03125-5.5586 0.042968-8.3398z"/>
  <path d="m11.242 34.695c3.168-0.11328 6.3359 0.046876 9.5-0.023437 1.2578 0.054687 2.5156 0.003906 3.7734 0.03125h-0.003906c0.24609 0.015625 0.49219-0.023437 0.72266-0.10938 0.19141-1.0469 0.042969-2.1328-0.41797-3.0898-0.60156-0.86328-1.5938-1.3711-2.6445-1.3555-3.1719 0-6.3398-0.007813-9.5117 0.003906h0.003906c-1.2188 0.003906-2.3125 0.75391-2.7539 1.8906-0.19922 0.85547-0.26562 1.7344-0.19531 2.6094 0.50781 0.054687 1.0156 0.066406 1.5273 0.042968z"/>
  <path d="m28.773 64.766c0.56641 0.52344 1.3945 0.65625 2.0977 0.33594 0.6875-0.34766 1.1484-1.0156 1.2344-1.7812 0.050781-8.9844-0.015625-17.973 0.023437-26.957 0.015625-0.58594-0.20703-1.1523-0.61719-1.5703-0.41016-0.41797-0.97266-0.65234-1.5586-0.64844-1.1172 0.14453-1.9492 1.1016-1.9453 2.2266 0.003907 8.8555 0 17.711-0.011718 26.566-0.042969 0.69531 0.24609 1.3711 0.77734 1.8281z"/>
  <path d="m21.91 66.691c0.87891 0.03125 1.7305-0.29297 2.3633-0.90625 0.63281-0.61328 0.98828-1.457 0.98047-2.3359 0.003906-8.7461 0.003906-17.492 0.007813-26.242-5.1758 0.023438-10.355 0.03125-15.531 0.015625-0.007813 8.6562 0.03125 17.312-0.003907 25.969h0.003907c-0.003907 0.82812 0.28125 1.6289 0.80469 2.2695 0.64844 0.79687 1.6289 1.2461 2.6523 1.2227 2.9062 0.003906 5.8164-0.011719 8.7227 0.007812z"/>
  <path d="m53.473 50.148 0.019532 0.10156c0.074218-0.027344 0.22266-0.078125 0.29687-0.10547 1.0938-0.085937 2.1836-0.1875 3.2812-0.20312v0.003906c0.76563 0.003907 1.418-0.55859 1.5273-1.3203 0.039063-0.44531-0.12109-0.88672-0.44141-1.207-0.31641-0.31641-0.76172-0.47266-1.207-0.42969-1.2109 0.18359-2.4375 0.19141-3.6523 0.32031l-0.003906-0.003906c-0.60547 0.078124-1.082 0.5625-1.1445 1.168-0.089844 0.82812 0.5 1.5742 1.3242 1.6758z"/>
  <path d="m46.391 53.906c0.42969-0.10938 0.82812-0.31641 1.168-0.60156 0.65234-0.48438 1.3125-0.96484 2.0078-1.3906 0.52734-0.25781 0.89062-0.76172 0.96484-1.3477 0.015625-0.51562-0.23438-1-0.65625-1.2969-0.42578-0.29297-0.96875-0.35156-1.4492-0.16016-0.81641 0.51172-1.5742 1.1094-2.3789 1.6406-0.5 0.36719-1.1133 0.73047-1.2539 1.3828h0.003906c-0.066406 0.45703 0.070313 0.92188 0.37891 1.2617 0.30859 0.34375 0.75391 0.53125 1.2148 0.51172z"/>
  <path d="m41.047 60.691c0.58203 0.007813 1.1133-0.3125 1.3828-0.82812 0.48828-0.87109 0.89453-1.7891 1.4219-2.6367 0.16797-0.29687 0.42969-0.57422 0.41016-0.9375h-0.003907c0.015626-0.51953-0.23047-1.0117-0.65625-1.3086-0.42578-0.29688-0.97266-0.35938-1.4531-0.16797-0.3125 0.14453-0.55859 0.39062-0.70703 0.69922-0.44531 0.78125-0.82422 1.5977-1.2578 2.3867-0.24219 0.4375-0.63281 0.85547-0.59375 1.3945 0.097656 0.75 0.70312 1.332 1.457 1.3984z"/>
  <path d="m60.188 62.527c-6.0312 0.007812-12.062 0.007812-18.094 0.003906-2.0742 0.023438-4.1523-0.054688-6.2266 0.039062-1.1211 0.078126-1.9727 1.0469-1.9062 2.1719 0.066406 1.1211 1.0234 1.9844 2.1484 1.9336 8.0703-0.003906 16.141-0.003906 24.211 0.007813h-0.003906c1.0547-0.007813 1.957-0.76562 2.1445-1.8047 0.015624-0.61719-0.21484-1.2109-0.64453-1.6523-0.42578-0.44531-1.0117-0.69531-1.6289-0.69922z"/>
  <path d="m59.145 69.309c-2.5195 0.058594-5.0352-0.023438-7.5508 0.015625-1.7344-0.019531-3.4727-0.003907-5.207 0-10.602 0.007812-21.199 0.011719-31.797 0.007812 0.011718 8.7617 0.011718 17.52 0.003906 26.285 0.035156 1.3672 1.1367 2.4609 2.5 2.4844 3.9062-0.003906 7.8125 0.003907 11.723 0 2.8633 0.023438 5.7227-0.089843 8.582-0.019531 1.6953 0.0625 3.3945-0.035156 5.0859 0.019531 2.6484-0.003906 5.293 0.003907 7.9414 0v0.003907c0.57031 0.046875 1.1289-0.17578 1.5117-0.60547 0.36719-0.51562 0.375-1.2031 0.023438-1.7305-1.5273-2.8398-3.0156-5.6953-4.4922-8.5586-0.44531-0.875-0.96094-1.707-1.3828-2.5938v0.003906c3.6367-0.89453 6.9844-2.6953 9.7383-5.2305 2.875-2.6719 4.7695-6.2305 5.3867-10.105-0.69141 0.015625-1.3789-0.011718-2.0664 0.023438z"/>
 </g>
<text x="0.0" y="117.5" font-size="5.0" font-weight="bold" font-family="Arbeit Regular, Helvetica, Arial-Unicode, Arial, Sans-serif" fill="#000000">Created by visual language</text><text x="0.0" y="122.5" font-size="5.0" font-weight="bold" font-family="Arbeit Regular, Helvetica, Arial-Unicode, Arial, Sans-serif" fill="#000000">from Noun Project</text></svg>